<svg width="70" height="70" viewBox="0 0 70 70" fill="none" xmlns="http://www.w3.org/2000/svg">
<path d="M0 10C0 4.47715 4.47715 0 10 0H30C52.0914 0 70 17.9086 70 40V50C70 61.0457 61.0457 70 50 70H10C4.47715 70 0 65.5229 0 60V10Z" fill="#DC68CD"/>
<path d="M46.5491 25.2237L35.858 19.4604C34.7326 18.8465 33.3685 18.8465 32.2431 19.4604L21.5521 25.2237C20.7677 25.65 20.2903 26.4684 20.2903 27.4062C20.2903 28.327 20.7677 29.1625 21.5521 29.5888L32.2431 35.3521C32.8058 35.659 33.4367 35.8124 34.0506 35.8124C34.6644 35.8124 35.2953 35.659 35.858 35.3521L46.5491 29.5888C47.3334 29.1625 47.8108 28.344 47.8108 27.4062C47.8108 26.4684 47.3334 25.65 46.5491 25.2237Z" fill="white"/>
<path opacity="0.44" d="M30.4875 37.3471L20.5296 32.3681C19.7623 31.993 18.8756 32.0271 18.1595 32.4704C17.4263 32.9308 17 33.6981 17 34.5507V43.9459C17 45.5657 17.9037 47.0321 19.3531 47.7653L29.2939 52.7443C29.6349 52.9148 30.01 53 30.3852 53C30.8285 53 31.2718 52.8807 31.664 52.642C32.3972 52.1986 32.8235 51.4143 32.8235 50.5617V41.1665C32.8405 39.5296 31.9368 38.0632 30.4875 37.3471Z" fill="white"/>
<path opacity="0.44" d="M49.9428 32.4704C49.2096 32.027 48.3229 31.9759 47.5727 32.3681L37.6319 37.347C36.1825 38.0802 35.2788 39.5296 35.2788 41.1665V50.5617C35.2788 51.4142 35.7051 52.1986 36.4383 52.6419C36.8305 52.8806 37.2738 53 37.7171 53C38.0922 53 38.4674 52.9147 38.8084 52.7442L48.7492 47.7653C50.1986 47.0321 51.1023 45.5827 51.1023 43.9458V34.5506C51.1023 33.6981 50.676 32.9308 49.9428 32.4704Z" fill="white"/>
</svg>
