<svg width="70" height="70" viewBox="0 0 70 70" fill="none" xmlns="http://www.w3.org/2000/svg">
<path d="M0 10.0001C0 4.47727 4.47715 0.00012207 10 0.00012207L30 0.00012207C52.0914 0.00012207 70 17.9087 70 40.0001V50.0001C70 61.0458 61.0457 70.0001 50 70.0001H10C4.47715 70.0001 0 65.523 0 60.0001L0 10.0001Z" fill="#1965BF"/>
<path opacity="0.34" d="M24.9291 21H40.8605C48.0369 21 51.625 25.4118 51.625 31.5882V36C51.625 44.8235 46.2428 51 36.3753 51H19.2239L21.1256 43.5H34.4736C40.8605 43.5 44.0002 39.5294 44.0002 34.1294V33.7941C44.0002 30.7059 42.6546 28.5 38.6179 28.5H23.0273L24.9291 21Z" fill="white"/>
<path d="M34.4197 32.8765H20.5874C18.6498 32.8765 16.9633 34.1823 16.4789 36.0176L16.0304 37.8176C15.8689 38.4706 16.3713 39.1059 17.053 39.1059H30.8854C32.823 39.1059 34.5095 37.8 34.9939 35.9647L35.4424 34.1647C35.6218 33.5118 35.1015 32.8765 34.4197 32.8765Z" fill="white"/>
</svg>
