<svg width="70" height="70" viewBox="0 0 70 70" fill="none" xmlns="http://www.w3.org/2000/svg">
<path d="M70 60C70 65.5228 65.5228 70 60 70L40 70C17.9086 70 0 52.0914 0 30V20C0 8.9543 8.95431 0 20 0L60 0C65.5228 0 70 4.47715 70 10L70 60Z" fill="#EA8D33"/>
<path opacity="0.4" d="M44.2712 30.9932C44.2712 30.9932 43.973 32.9962 37.8101 41.0085C32.0249 48.5601 40.3945 54.3089 41.3885 54.97C41.4482 55.01 41.5078 55.01 41.5873 54.97C42.9392 54.1287 57.9885 44.3737 44.2712 30.9932Z" fill="white"/>
<path d="M39.5001 26.5666C39.5001 21.9595 37.7108 17.7531 35.9216 15.3494C35.3252 14.7485 34.3312 14.9488 34.1324 15.75C33.3372 18.7546 30.9516 25.1645 25.1863 32.7761C17.8306 42.3909 24.5899 52.8069 31.548 54.8099C35.3252 55.8115 30.554 52.8069 29.9575 46.5973C29.3611 38.7854 39.5001 32.9764 39.5001 26.5666Z" fill="white"/>
</svg>
