<svg width="44" height="44" viewBox="0 0 44 44" fill="none" xmlns="http://www.w3.org/2000/svg">
<path d="M8.67112 22.9951H8.38513C3.76559 22.9951 0.00396729 26.776 0.00396729 31.4191V35.5759C0.00396729 40.219 3.76559 43.9999 8.38513 43.9999H8.67112C13.2907 43.9999 17.0523 40.219 17.0523 35.5759V31.4191C17.0523 26.776 13.2907 22.9951 8.67112 22.9951Z" fill="#E21F6C"/>
<path d="M35.6183 22.9954H35.3323C30.7128 22.9954 26.9512 26.7762 26.9512 31.4194V35.5761C26.9512 40.2193 30.7128 44.0001 35.3323 44.0001H35.6183C40.2379 44.0001 43.9995 40.2193 43.9995 35.5761V31.4194C43.9995 26.7762 40.2379 22.9954 35.6183 22.9954Z" fill="#E21F6C"/>
<path d="M24.5973 21.6906C23.7174 21.6906 22.9255 21.2042 22.5516 20.4083L19.3619 14.0184L18.438 15.7429C17.932 16.6936 16.9201 17.2906 15.8423 17.2906H14.2364C13.3345 17.2906 12.5865 16.5389 12.5865 15.6324C12.5865 14.7258 13.3345 13.9741 14.2364 13.9741H15.6442L17.3821 10.7459C17.8 9.99418 18.6359 9.48567 19.4278 9.5299C20.2858 9.5299 21.0557 10.0384 21.4517 10.7902L24.5973 17.1137L25.3453 15.5881C25.8512 14.571 26.8411 13.952 27.985 13.952H29.7668C30.6688 13.952 31.4167 14.7037 31.4167 15.6102C31.4167 16.5168 30.6688 17.2685 29.7668 17.2685H28.205L26.6431 20.3861C26.2472 21.2042 25.4773 21.6906 24.5973 21.6906Z" fill="#E21F6C"/>
<path opacity="0.24" d="M1.65373 36.7032C0.751823 36.7032 0.00389664 35.9514 0.00389664 35.0449V22.442C-0.106093 16.4501 2.11568 10.7899 6.25127 6.5447C10.3869 2.32163 15.9304 0 21.8918 0C34.0786 0 43.9996 9.97172 43.9996 22.2208V34.8237C43.9996 35.7302 43.2516 36.482 42.3497 36.482C41.4478 36.482 40.6999 35.7302 40.6999 34.8237V22.2208C40.6999 11.8069 32.2747 3.31655 21.8918 3.31655C16.8103 3.31655 12.1027 5.28438 8.60506 8.86625C5.0854 12.4702 3.21558 17.2682 3.30357 22.3977V35.0228C3.30357 35.9514 2.57764 36.7032 1.65373 36.7032Z" fill="#E21F6C"/>
</svg>
