<svg width="44" height="44" viewBox="0 0 44 44" fill="none" xmlns="http://www.w3.org/2000/svg">
<path d="M28.5514 16.5846C29.3023 19.4734 27.9882 22.152 25.7354 23.5176V28.7173C25.7354 30.5294 24.2335 32 22.383 32C20.5324 32 19.0306 30.5294 19.0306 28.7173V23.5176C17.2069 22.4146 16 20.445 16 18.2128C16 14.2211 19.862 11.1223 24.0994 12.2253C26.2449 12.7768 27.9882 14.4837 28.5514 16.5846Z" fill="#15A39D"/>
<path opacity="0.3" d="M22.4674 44C10.0737 44 0 34.1358 0 22C0 9.86419 10.0737 0 22.4674 0C32.3739 0 40.9846 6.2214 43.9315 15.4512C44.1823 16.2698 43.7225 17.1293 42.9074 17.3749C42.0714 17.6205 41.1936 17.1702 40.9428 16.3721C38.4139 8.41116 30.9945 3.06977 22.4882 3.06977C11.8293 3.06977 3.15587 11.5628 3.15587 22C3.15587 32.4372 11.8293 40.9302 22.4882 40.9302C30.9736 40.9302 38.393 35.6093 40.9219 27.6893C41.1727 26.8707 42.0505 26.4409 42.8865 26.6865C43.7225 26.9321 44.1614 27.8121 43.9106 28.6102C40.9428 37.8195 32.3321 44 22.4674 44Z" fill="#15A39D"/>
</svg>
