<svg width="50" height="42" viewBox="0 0 50 42" fill="none" xmlns="http://www.w3.org/2000/svg">
<path opacity="0.3" d="M12.5006 0H34.8046C44.8515 0 49.8749 6.17647 49.8749 14.8235V21C49.8749 33.3529 42.3398 42 28.5253 42H4.51331L7.17573 31.5H25.8629C34.8046 31.5 39.2001 25.9412 39.2001 18.3812V17.9118C39.2001 13.5882 37.3163 10.5 31.665 10.5H9.83814L12.5006 0Z" fill="#3DA80F"/>
<path d="M25.7876 16.6271H6.42231C3.70965 16.6271 1.34864 18.4553 0.670478 21.0247L0.042549 23.5447C-0.183506 24.4588 0.519775 25.3483 1.47423 25.3483H20.8396C23.5522 25.3483 25.9132 23.52 26.5914 20.9506L27.2193 18.4306C27.4705 17.5165 26.7421 16.6271 25.7876 16.6271Z" fill="#3DA80F"/>
</svg>
