<svg width="47" height="44" viewBox="0 0 47 44" fill="none" xmlns="http://www.w3.org/2000/svg">
<path d="M37.4001 26.0408C32.5381 26.0408 28.6001 30.0591 28.6001 35.0203C28.6001 36.704 29.0621 38.2978 29.8761 39.6448C31.3941 42.2488 34.1881 43.9999 37.4001 43.9999C40.6121 43.9999 43.4061 42.2488 44.9241 39.6448C45.7381 38.2978 46.2001 36.704 46.2001 35.0203C46.2001 30.0591 42.2621 26.0408 37.4001 26.0408ZM41.9541 34.055L37.2681 38.4774C36.9601 38.7693 36.5421 38.9264 36.1461 38.9264C35.7281 38.9264 35.3102 38.7693 34.9802 38.4325L32.802 36.2101C32.164 35.5591 32.164 34.4815 32.802 33.8305C33.44 33.1795 34.496 33.1795 35.134 33.8305L36.1901 34.9081L39.7101 31.5856C40.3701 30.9571 41.4261 31.002 42.0421 31.6754C42.6581 32.3489 42.6141 33.404 41.9541 34.055Z" fill="#2EA1FC"/>
<path d="M44 9.29383V12.5714H0V9.29383C0 4.15304 4.09205 0 9.13005 0H34.8699C39.908 0 44 4.15304 44 9.29383Z" fill="#2EA1FC"/>
<path opacity="0.2" d="M0 12.5717V29.3185C0 34.4593 4.07003 38.6123 9.10803 38.6123H22.8801C24.1561 38.6123 25.256 37.5123 25.146 36.2103C24.838 32.7756 25.916 29.0491 28.908 26.0859C30.14 24.8512 31.658 23.9083 33.308 23.3696C36.058 22.4716 38.72 22.5838 41.074 23.392C42.504 23.8859 44 22.8308 44 21.2818V12.5717H0ZM13.2 31.092H8.8C7.898 31.092 7.15 30.3287 7.15 29.4083C7.15 28.4879 7.898 27.7246 8.8 27.7246H13.2C14.102 27.7246 14.85 28.4879 14.85 29.4083C14.85 30.3287 14.102 31.092 13.2 31.092Z" fill="#3E9FEE"/>
<path d="M14.8498 29.4083C14.8498 30.3287 14.1018 31.0919 13.1998 31.0919H8.79984C7.89784 31.0919 7.14984 30.3287 7.14984 29.4083C7.14984 28.4879 7.89784 27.7246 8.79984 27.7246H13.1998C14.1018 27.7246 14.8498 28.4879 14.8498 29.4083Z" fill="#2EA1FC"/>
</svg>
