<svg width="37" height="52" viewBox="0 0 37 52" fill="none" xmlns="http://www.w3.org/2000/svg">
<path opacity="0.3" d="M28.9525 20.791C28.9525 20.791 28.5648 23.395 20.5531 33.8109C13.0325 43.6279 23.9129 51.1013 25.2051 51.9607C25.2826 52.0127 25.3601 52.0127 25.4635 51.9607C27.2209 50.867 46.785 38.1856 28.9525 20.791Z" fill="#A554E0"/>
<path d="M22.75 15.0365C22.75 9.04735 20.424 3.579 18.098 0.454221C17.3227 -0.326973 16.0305 -0.066575 15.772 0.975017C14.7383 4.88099 11.637 13.2137 4.14214 23.1088C-5.42021 35.6079 3.36682 49.1486 12.4123 51.7526C17.3227 53.0546 11.1201 49.1486 10.3448 41.0763C9.56942 30.9208 22.75 23.3692 22.75 15.0365Z" fill="#B14AF7"/>
</svg>
