<svg width="44" height="44" viewBox="0 0 44 44" fill="none" xmlns="http://www.w3.org/2000/svg">
<path opacity="0.2" d="M10.1861 44H33.8139C40.0365 44 42.5165 40.282 42.8096 35.75L43.982 17.578C44.2976 12.826 40.4198 8.8 35.5274 8.8C34.1521 8.8 32.8895 8.03 32.2583 6.842L30.635 3.652C29.5979 1.65 26.8924 0 24.5928 0H19.4298C17.1076 0 14.4021 1.65 13.365 3.652L11.7417 6.842C11.1105 8.03 9.84789 8.8 8.47261 8.8C3.5802 8.8 -0.297648 12.826 0.0179915 17.578L1.19037 35.75C1.46091 40.282 3.96348 44 10.1861 44Z" fill="#D02323"/>
<path d="M25.382 14.85H18.6183C17.6939 14.85 16.9274 14.102 16.9274 13.2C16.9274 12.298 17.6939 11.55 18.6183 11.55H25.382C26.3064 11.55 27.0729 12.298 27.0729 13.2C27.0729 14.102 26.3064 14.85 25.382 14.85Z" fill="#D02323"/>
<path d="M21.9999 35.4863C26.2086 35.4863 29.6204 32.157 29.6204 28.0503C29.6204 23.9435 26.2086 20.6143 21.9999 20.6143C17.7913 20.6143 14.3795 23.9435 14.3795 28.0503C14.3795 32.157 17.7913 35.4863 21.9999 35.4863Z" fill="#D02323"/>
</svg>
