<svg width="44" height="44" viewBox="0 0 44 44" fill="none" xmlns="http://www.w3.org/2000/svg">
<path opacity="0.2" d="M31.2336 0H12.7884C4.77638 0 0 4.774 0 12.782V31.196C0 39.226 4.77638 44 12.7884 44H31.2116C39.2235 44 43.9999 39.226 43.9999 31.218V12.782C44.0219 4.774 39.2456 0 31.2336 0Z" fill="#EF7009"/>
<path d="M32.6422 16.302C32.4881 15.928 32.1799 15.62 31.8057 15.466C31.6297 15.4 31.4316 15.356 31.2335 15.356H27.1394C26.281 15.356 25.5986 16.038 25.5986 16.896C25.5986 17.754 26.281 18.436 27.1394 18.436H27.5356L22.8913 23.078L20.6462 19.734C20.382 19.36 19.9858 19.096 19.5236 19.052C19.0394 19.008 18.6212 19.162 18.291 19.492L11.7317 26.048C11.1374 26.642 11.1374 27.61 11.7317 28.226C12.0399 28.534 12.4141 28.666 12.8103 28.666C13.2065 28.666 13.6027 28.512 13.8888 28.226L19.1274 22.99L21.3725 26.334C21.6367 26.708 22.0329 26.972 22.4951 27.016C22.9793 27.06 23.3975 26.906 23.7277 26.576L29.7147 20.592V20.988C29.7147 21.846 30.397 22.528 31.2555 22.528C32.1139 22.528 32.7962 21.846 32.7962 20.988V16.874C32.7522 16.676 32.7302 16.478 32.6422 16.302Z" fill="#EF7009"/>
</svg>
