<svg width="44" height="44" viewBox="0 0 44 44" fill="none" xmlns="http://www.w3.org/2000/svg">
<path d="M44.0002 22.5073C44.0002 21.0119 43.8765 19.5083 43.6126 18.0371H22.4434V26.5087H34.566C34.063 29.2409 32.4466 31.6579 30.0798 33.1938V38.6907H37.3122C41.5592 34.859 44.0002 29.2005 44.0002 22.5073Z" fill="#4285F4"/>
<path d="M22.4438 43.9997C28.4968 43.9997 33.6015 42.0515 37.3207 38.6888L30.0884 33.1919C28.0762 34.5338 25.4785 35.2937 22.452 35.2937C16.5969 35.2937 11.6324 31.4216 9.85111 26.2158H2.38788V31.8824C6.19784 39.3112 13.9579 43.9997 22.4438 43.9997Z" fill="#34A853"/>
<path d="M9.84239 26.2156C8.90227 23.4834 8.90227 20.5248 9.84239 17.7926V12.126H2.38741C-0.795803 18.3422 -0.795803 25.666 2.38741 31.8822L9.84239 26.2156Z" fill="#FBBC04"/>
<path d="M22.4438 8.7075C25.6435 8.659 28.736 9.8392 31.0533 12.0056L37.4609 5.72466C33.4036 1.99004 28.0185 -0.0631861 22.4438 0.00148252C13.9579 0.00148252 6.19783 4.68996 2.38788 12.1269L9.84286 17.7934C11.6159 12.5795 16.5886 8.7075 22.4438 8.7075Z" fill="#EA4335"/>
</svg>
