<svg width="28" height="28" viewBox="0 0 28 28" fill="none" xmlns="http://www.w3.org/2000/svg"> <circle cx="14" cy="14" r="14" fill="#CB2027"/> <path d="M14.0067 6C9.5847 6 6 9.57875 6 13.9934C6 17.3816 8.10881 20.2762 11.0872 21.4406C11.0143 20.8094 10.9557 19.8353 11.1132 19.1447C11.2581 18.5194 12.0488 15.1706 12.0488 15.1706C12.0488 15.1706 11.8118 14.6906 11.8118 13.9866C11.8118 12.8747 12.4576 12.0459 13.2614 12.0459C13.9466 12.0459 14.2766 12.5594 14.2766 13.1712C14.2766 13.8553 13.8418 14.8819 13.6108 15.8359C13.4198 16.6319 14.0127 17.2831 14.7968 17.2831C16.2204 17.2831 17.3144 15.7831 17.3144 13.625C17.3144 11.7103 15.9374 10.375 13.967 10.375C11.6873 10.375 10.3491 12.0791 10.3491 13.8422C10.3491 14.5262 10.613 15.2634 10.942 15.665C11.0086 15.7431 11.0155 15.8156 10.9955 15.8944C10.936 16.1444 10.798 16.6903 10.771 16.8025C10.7382 16.9472 10.6521 16.9797 10.5006 16.9078C9.49894 16.4406 8.87258 14.9866 8.87258 13.8091C8.87258 11.2891 10.7044 8.97375 14.1642 8.97375C16.9388 8.97375 19.0996 10.9478 19.0996 13.5925C19.0996 16.2372 17.3601 18.5666 14.948 18.5666C14.1373 18.5666 13.3726 18.1453 13.1162 17.6453C13.1162 17.6453 12.7143 19.1712 12.6154 19.5466C12.4379 20.2437 11.9496 21.1125 11.6203 21.6453C12.3721 21.8747 13.1635 22 13.9936 22C18.4156 22 22.0003 18.4212 22.0003 14.0066C22.0132 9.57875 18.4288 6 14.0067 6Z" fill="white"/> </svg>