<svg width="187" height="39" viewBox="0 0 187 39" fill="none" xmlns="http://www.w3.org/2000/svg">
<g opacity="0.8">
<path d="M186.5 37.5001C177 37.5002 130.719 39.3325 105 24.0001C84.9621 11.1506 75.0561 35.9054 98.8373 34.3808C122.619 32.8563 118.074 6.041 96.6353 4.76152C75.5 3.50012 45 18.5001 37 24.0001" stroke="#395BDF" stroke-dasharray="4 4"/>
<path d="M33.0041 17.7518L39.1941 10.7364C38.6794 10.8989 21.1204 13.941 9.22224 16.5885M33.0041 17.7518L37.4559 25.0473C35.4901 23.9529 30.9929 22.1036 28.7309 23.4608M33.0041 17.7518L9.22224 16.5885M28.7309 23.4608L22.2275 27.7022L3 18.0884C4.73515 17.6208 6.86787 17.1124 9.22224 16.5885M28.7309 23.4608L9.22224 16.5885" stroke="#395BDF" stroke-width="1.5"/>
</g>
</svg>
