<svg width="28" height="28" viewBox="0 0 28 28" fill="none" xmlns="http://www.w3.org/2000/svg"> <circle cx="14" cy="14" r="14" fill="white"/> <path d="M12.9255 15.5625C12.5561 15.9874 12.195 16.4029 11.834 16.8186C10.6493 18.1821 9.46422 19.5452 8.2816 20.9102C8.22424 20.9766 8.1653 21.0009 8.07936 20.9998C7.76442 20.9953 7.44947 20.9982 7.13453 20.9977C7.09808 20.9977 7.06186 20.9944 7 20.9912C7.12305 20.8488 7.23171 20.7226 7.34082 20.5971C8.88922 18.815 10.4376 17.0326 11.986 15.2504C12.1017 15.1175 12.2144 14.9821 12.3341 14.8529C12.3826 14.8007 12.3797 14.7652 12.3406 14.7092C11.7154 13.8114 11.0925 12.912 10.4687 12.013C9.74452 10.9694 9.0197 9.92607 8.29533 8.8827C7.87892 8.28228 7.46252 7.68186 7.04589 7.08144C7.03352 7.06344 7.0225 7.04432 7.00045 7.009C7.05242 7.0063 7.09133 7.00248 7.13003 7.00248C8.4159 7.00203 9.70201 7.00293 10.9879 7C11.0745 6.99978 11.1231 7.03082 11.1701 7.09898C12.081 8.41433 12.9941 9.72833 13.9063 11.0428C14.1328 11.369 14.3585 11.6958 14.5848 12.0223C14.6122 12.0621 14.6408 12.101 14.677 12.1521C14.796 12.0164 14.9092 11.8886 15.0212 11.7597C16.373 10.2039 17.7248 8.64807 19.075 7.09089C19.1283 7.02925 19.1816 6.99888 19.266 7.00023C19.5845 7.00495 19.9033 7.00203 20.2221 7.00225C20.2583 7.00225 20.2945 7.00585 20.3557 7.00922C20.2122 7.1757 20.0846 7.32507 19.9557 7.47332C18.4021 9.26086 16.849 11.0488 15.293 12.8341C15.2279 12.9086 15.2306 12.9576 15.284 13.0341C16.5912 14.9139 17.896 16.795 19.2017 18.6759C19.7103 19.4086 20.2196 20.1406 20.7282 20.8733C20.7514 20.9069 20.773 20.9415 20.8061 20.9921C20.7525 20.9946 20.7134 20.9977 20.6745 20.9977C19.3922 20.998 18.1101 20.9971 16.8279 21C16.7341 21.0002 16.6812 20.9685 16.6283 20.892C15.6902 19.5362 14.7488 18.1826 13.8084 16.8283C13.5306 16.4283 13.2539 16.0275 12.9763 15.627C12.9635 15.609 12.9489 15.5924 12.9255 15.5625ZM19.1459 20.131C19.1182 20.0867 19.1007 20.0549 19.08 20.0255C18.8725 19.7314 18.6645 19.4381 18.457 19.1443C16.912 16.9557 15.367 14.767 13.8219 12.5786C12.7457 11.0542 11.6688 9.53059 10.5942 8.0049C10.5463 7.93674 10.4981 7.90614 10.4118 7.90659C9.8606 7.91064 9.30967 7.90839 8.75852 7.90862C8.72635 7.90862 8.69441 7.91222 8.64694 7.91514C8.67933 7.96373 8.70295 8.00063 8.72815 8.0364C10.0556 9.9155 11.3834 11.7941 12.7106 13.6732C14.2129 15.8003 15.715 17.9275 17.2148 20.0565C17.2607 20.1215 17.3093 20.1384 17.3822 20.1379C17.9295 20.1357 18.4768 20.1368 19.0244 20.1364C19.0595 20.1368 19.0953 20.1334 19.1459 20.131Z" fill="#050C1F"/> </svg>